# xmcd
#
# Track frame offsets: 
#        150
#        12020
#        31398
#        47065
#        69186
#        87537
#        98775
#        110708
#        130546
#        146597
#        163225
#        174700
#        192975
#        210566
#        221123
#
# Disc length: 3178 seconds
#
# Revision: 0
# Processed by: cddbd v1.5.1PL2 Copyright (c) Steve Scherf et al.
# Submitted via: ExactAudioCopy v0.95b1
#
DISCID=d70c680f
DTITLE=The Straps - Appalaches
DYEAR=1900
DGENRE=Bluegrass
TTITLE0=Ridin' On That Midnight Train
TTITLE1=I'm A Pilgrim
TTITLE2=From A Strange Land
TTITLE3=American Medley
TTITLE4=The Hills That I Call Home
TTITLE5=Muskrat
TTITLE6=Laisse Rouler Le Bon Temps
TTITLE7=Malted Milk
TTITLE8=New River Train
TTITLE9=Shady Grove
TTITLE10=La Coulée Rodaire
TTITLE11=I'll Live On
TTITLE12=Pick A Bale Of Cotton
TTITLE13=Long Gone
TTITLE14=You Are My Sunshine
EXTD=
EXTT0=
EXTT1=
EXTT2=
EXTT3=
EXTT4=
EXTT5=
EXTT6=
EXTT7=
EXTT8=
EXTT9=
EXTT10=
EXTT11=
EXTT12=
EXTT13=
EXTT14=
PLAYORDER=
